<svg width="1160" height="366" viewBox="0 0 1160 366" fill="none" xmlns="http://www.w3.org/2000/svg">
<path d="M118.24 138.768C106.733 172.865 76.7235 216.861 60.2625 277.42C43.8015 337.978 40.5861 362.704 40.5861 362.704L35.5305 366H29.8582C33.9026 354.428 44.3171 322.227 57.0067 266.172C73.3362 194.042 109.959 163.687 116.41 131.019C118.948 118.149 119.565 98.5037 119.372 79.4265C119.069 50.0856 116.865 22.0732 116.865 22.0732C116.865 22.0732 121.243 50.1566 122.618 80.3292C123.599 101.911 123.033 124.559 118.24 138.768Z" fill="#442D20"/>
<path d="M96.8751 179.883C99.8275 183.94 99.1197 190.644 95.0449 189.751C90.9701 188.859 83.4777 177.266 88.3412 177.49C91.3286 177.637 94.2449 178.455 96.8751 179.883Z" fill="#4A9151"/>
<path d="M73.6194 202.439C70.7882 206.597 64.2665 208.159 63.7407 204.011C63.215 199.863 71.5971 188.899 73.0228 193.565C73.8771 196.442 74.0809 199.473 73.6194 202.439Z" fill="#234C24"/>
<path d="M117.977 191.547C113.629 197.916 103.609 200.33 102.81 193.961C102.012 187.591 114.863 170.756 117.057 177.916C118.372 182.334 118.686 186.991 117.977 191.547Z" fill="#4A9151"/>
<path d="M68.7559 209.945C76.3797 211.081 82.9115 219.073 77.5627 222.572C72.2139 226.071 51.486 221.852 56.946 216.74C60.3298 213.622 64.3644 211.301 68.7559 209.945Z" fill="#4A9151"/>
<path d="M103.184 210.289C101.223 214.914 95.0955 217.754 93.8113 213.788C92.5272 209.823 98.5231 197.419 100.889 201.709C102.282 204.362 103.066 207.294 103.184 210.289Z" fill="#234C24"/>
<path d="M110.03 226.668C113.589 230.208 113.943 236.932 109.787 236.699C105.631 236.465 96.3897 226.222 101.223 225.654C104.197 225.329 107.206 225.676 110.03 226.668Z" fill="#307735"/>
<path d="M88.1693 206.039C86.865 210.887 81.2229 214.528 79.3625 210.786C77.502 207.043 81.8094 193.93 84.6911 197.854C86.446 200.288 87.6346 203.084 88.1693 206.039Z" fill="#4A9151"/>
<path d="M76.8448 236.456C71.9106 237.369 66.2079 233.839 68.7559 230.543C71.3039 227.247 84.9338 225.472 82.6891 229.772C81.2653 232.411 79.2679 234.696 76.8448 236.456Z" fill="#4A9151"/>
<path d="M91.0915 192.56C93.8721 192.053 97.0773 194.051 95.6314 195.907C94.1855 197.763 86.5313 198.737 87.7851 196.313C88.596 194.832 89.7255 193.55 91.0915 192.56Z" fill="#307735"/>
<path d="M53.5891 176.07C56.3697 175.563 59.5749 177.561 58.129 179.407C56.6831 181.253 49.029 182.237 50.2929 179.823C51.0981 178.34 52.2244 177.058 53.5891 176.07Z" fill="#307735"/>
<path d="M108.655 162.946C111.435 162.449 114.64 164.437 113.195 166.293C111.749 168.149 104.094 169.123 105.348 166.699C106.159 165.217 107.289 163.935 108.655 162.946Z" fill="#234C24"/>
<path d="M87.1076 218.717C89.8781 218.21 93.0834 220.208 91.6375 222.064C90.1916 223.92 82.5374 224.893 83.8013 222.469C84.6122 220.988 85.7416 219.706 87.1076 218.717Z" fill="#4A9151"/>
<path d="M106.744 246.962C109.514 246.455 112.719 248.453 111.273 250.299C109.827 252.145 102.173 253.129 103.437 250.715C104.244 249.231 105.375 247.948 106.744 246.962Z" fill="#4A9151"/>
<path d="M47.7044 220.665C48.9784 223.19 47.9875 226.841 45.8035 225.979C43.6195 225.117 40.4951 218.008 43.1746 218.555C44.8219 218.913 46.3692 219.633 47.7044 220.665Z" fill="#307735"/>
<path d="M61.7691 225.836C64.5395 225.329 67.7448 227.327 66.2989 229.183C64.853 231.039 57.1988 232.013 58.4627 229.589C59.2736 228.107 60.403 226.826 61.7691 225.836Z" fill="#234C24"/>
<path d="M110.353 277.328C108.139 281.841 101.91 284.326 100.798 280.3C99.6859 276.273 106.42 264.214 108.493 268.626C109.753 271.351 110.388 274.325 110.353 277.328Z" fill="#4A9151"/>
<path d="M79.6153 267.186C74.6305 266.608 70.2119 261.547 73.6295 259.153C77.0471 256.76 90.6163 259.082 87.1684 262.521C85.028 264.62 82.4476 266.214 79.6153 267.186Z" fill="#234C24"/>
<path d="M109.888 301.487C102.244 300.594 95.4494 292.825 100.697 289.144C105.945 285.462 126.784 289.042 121.486 294.326C118.202 297.553 114.239 300 109.888 301.487Z" fill="#4A9151"/>
<path d="M70.7781 266.394C73.3261 273.687 69.3322 283.2 63.7002 280.086C58.0683 276.973 52.1836 256.597 59.2412 259.062C63.5844 260.611 67.5265 263.117 70.7781 266.394Z" fill="#4A9151"/>
<path d="M86.4707 297.085C81.4151 297.501 76.137 293.424 79.0086 290.391C81.8802 287.359 95.6415 286.953 92.9418 291.01C91.2618 293.492 89.0511 295.568 86.4707 297.085Z" fill="#234C24"/>
<path d="M75.2068 310.787C73.7305 315.604 67.9773 319.042 66.2382 315.249C64.499 311.456 69.2715 298.474 72.0015 302.501C73.6745 304.987 74.7698 307.819 75.2068 310.787Z" fill="#307735"/>
<path d="M83.225 281.78C78.3312 282.876 72.497 279.569 74.9338 276.172C77.3706 272.774 90.9398 270.492 88.8164 274.873C87.4889 277.565 85.5785 279.925 83.225 281.78Z" fill="#4A9151"/>
<path d="M51.1119 285.908C48.0077 281.953 48.4728 275.239 52.5679 275.979C56.6629 276.72 64.6002 288.038 59.7367 288.038C56.7399 287.978 53.7939 287.251 51.1119 285.908Z" fill="#4A9151"/>
<path d="M96.4706 278.098C98.2097 280.33 97.9468 284.102 95.6415 283.676C93.3361 283.25 88.8872 276.891 91.597 276.912C93.2899 276.934 94.9559 277.34 96.4706 278.098Z" fill="#307735"/>
<path d="M93.5687 237.134C95.3078 239.366 95.0348 243.139 92.7295 242.723C90.4241 242.307 85.9853 235.928 88.685 235.948C90.3805 235.975 92.0486 236.381 93.5687 237.134Z" fill="#307735"/>
<path d="M71.5364 286.74C73.2755 288.971 73.0126 292.744 70.7073 292.318C68.4019 291.892 63.953 285.533 66.6628 285.553C68.3557 285.576 70.0217 285.981 71.5364 286.74Z" fill="#4A9151"/>
<path d="M55.7731 317.318C57.5123 319.549 57.2393 323.322 54.9339 322.906C52.6286 322.491 48.1897 316.111 50.8894 316.142C52.5846 316.163 54.2534 316.565 55.7731 317.318Z" fill="#4A9151"/>
<path d="M51.4758 252.672C49.8378 254.985 46.1573 255.796 45.8945 253.463C45.6316 251.131 50.4647 245.035 51.2231 247.672C51.6767 249.299 51.763 251.007 51.4758 252.672Z" fill="#307735"/>
<path d="M53.4576 267.561C55.1968 269.792 54.9238 273.565 52.6184 273.149C50.3131 272.734 45.8743 266.354 48.5739 266.375C50.2694 266.402 51.9376 266.807 53.4576 267.561Z" fill="#234C24"/>
<path d="M113.447 131.658C109.524 128.514 108.452 121.881 112.618 121.658C116.784 121.435 127.057 130.634 122.315 131.719C119.392 132.363 116.362 132.342 113.447 131.658Z" fill="#4A9151"/>
<path d="M129.999 103.615V104.173C129.999 103.899 129.999 103.747 129.999 103.747C129.999 103.747 129.979 103.655 129.999 103.615Z" fill="#234C24"/>
<path d="M89.9893 125.999C92.5171 118.697 101.536 113.727 103.993 119.65C106.45 125.573 98.4625 145.228 94.4686 138.92C92.0335 135.002 90.503 130.587 89.9893 125.999Z" fill="#4A9151"/>
<path d="M99.3725 104C100.04 99.0202 105.166 94.6794 107.461 98.1379C109.757 101.596 107.219 115.177 103.852 111.657C101.808 109.472 100.278 106.856 99.3725 104Z" fill="#234C24"/>
<path d="M88.4524 90.0147C84.0844 87.5401 81.9813 81.1506 86.0561 80.2784C90.1309 79.4062 101.728 86.8403 97.1784 88.6658C94.406 89.7609 91.4249 90.2217 88.4524 90.0147Z" fill="#307735"/>
<path d="M114.964 104.132C114.964 99.0613 119.433 94.1018 122.214 97.2154C124.994 100.329 124.236 114.132 120.475 111.1C118.142 109.219 116.259 106.838 114.964 104.132Z" fill="#4A9151"/>
<path d="M117.876 71.7897C122.396 69.6092 128.837 71.5058 127.229 75.3598C125.621 79.2137 112.922 84.4876 113.993 79.7817C114.676 76.8603 116.003 74.1295 117.876 71.7897Z" fill="#4A9151"/>
<path d="M115.692 117.895C113.144 119.123 109.524 118.048 110.434 115.867C111.344 113.687 118.523 110.725 117.886 113.392C117.501 115.04 116.751 116.579 115.692 117.895Z" fill="#307735"/>
<path d="M106.541 151.12C103.993 152.347 100.374 151.262 101.284 149.091C102.194 146.921 109.372 143.939 108.735 146.617C108.351 148.264 107.601 149.803 106.541 151.12Z" fill="#234C24"/>
<path d="M112.659 91.617C110.111 92.8341 106.501 91.759 107.401 89.5886C108.301 87.4182 115.49 84.4466 114.863 87.1241C114.471 88.7677 113.718 90.3027 112.659 91.617Z" fill="#4A9151"/>
<path d="M86.2886 69.5681C83.7507 70.7953 80.1309 69.7101 81.0409 67.5397C81.9509 65.3693 89.1299 62.3875 88.4929 65.065C88.1022 66.7122 87.3491 68.2508 86.2886 69.5681Z" fill="#4A9151"/>
<path d="M130 75.978V77.3168C129.897 77.116 129.843 76.8935 129.843 76.6677C129.843 76.4419 129.897 76.2194 130 76.0186C130 76.0186 129.99 75.9882 130 75.978Z" fill="#234C24"/>
<g opacity="0.2">
<path opacity="0.2" d="M58.0481 342.856C54.8328 345.33 49.4334 344.884 50.0704 341.568C50.7074 338.251 59.8884 331.943 59.8176 335.888C59.7546 338.314 59.15 340.695 58.0481 342.856Z" fill="#4A9151"/>
<path opacity="0.2" d="M39.4334 324.458C36.0361 322.237 34.6407 316.984 37.9673 316.476C41.2939 315.969 50.3029 322.562 46.5719 323.789C44.2723 324.545 41.8329 324.773 39.4334 324.458Z" fill="#234C24"/>
<path opacity="0.2" d="M49.0795 360.199C43.852 356.791 41.7186 348.728 46.8247 347.947C51.9308 347.166 65.7225 357.258 60.04 359.175C56.5084 360.332 52.7634 360.682 49.0795 360.199Z" fill="#4A9151"/>
<path opacity="0.2" d="M33.2656 320.686C32.5073 326.883 26.1878 332.339 23.2657 328.069C20.3435 323.8 23.3263 306.913 27.5629 311.244C30.1429 313.925 32.0915 317.151 33.2656 320.686Z" fill="#4A9151"/>
<path opacity="0.2" d="M33.6802 348.576C29.9087 347.075 27.5124 342.206 30.6468 341.04C33.7813 339.874 43.9228 344.539 40.5153 346.507C38.4181 347.696 36.0833 348.403 33.6802 348.576Z" fill="#234C24"/>
<path opacity="0.2" d="M20.6267 354.448C17.836 357.41 12.4366 357.825 12.5377 354.448C12.6388 351.071 20.7076 343.383 21.2637 347.288C21.5877 349.692 21.37 352.139 20.6267 354.448Z" fill="#307735"/>
<path opacity="0.2" d="M36.8045 336.324C32.8713 335.361 29.8278 330.858 32.76 329.276C35.6923 327.693 46.4 330.919 43.2858 333.332C41.3753 334.803 39.1606 335.825 36.8045 336.324Z" fill="#4A9151"/>
<path opacity="0.2" d="M12.0726 327.754C11.2435 323.768 13.9735 319.073 16.6732 321.091C19.3729 323.109 21.0817 334.134 17.5731 332.359C15.4209 331.254 13.5417 329.681 12.0726 327.754Z" fill="#4A9151"/>
<path opacity="0.2" d="M47.7246 338.424C48.1796 340.665 46.6427 343.302 45.1159 342.166C43.5891 341.03 42.6589 334.823 44.6305 335.817C45.8409 336.447 46.8975 337.337 47.7246 338.424Z" fill="#307735"/>
<path opacity="0.2" d="M60.2625 307.703C60.7276 309.945 59.1806 312.582 57.6639 311.446C56.1472 310.31 55.2069 304.103 57.1786 305.107C58.3869 305.731 59.4407 306.618 60.2625 307.703Z" fill="#307735"/>
<path opacity="0.2" d="M71.9307 352.065C72.3857 354.307 70.8488 356.943 69.3221 355.808C67.7953 354.672 66.865 348.465 68.8367 349.469C70.0476 350.093 71.1045 350.98 71.9307 352.065Z" fill="#234C24"/>
<path opacity="0.2" d="M26.572 335.705C27.027 337.947 25.4901 340.584 23.9634 339.448C22.4366 338.312 21.5063 332.105 23.478 333.109C24.6914 333.729 25.7491 334.617 26.572 335.705Z" fill="#4A9151"/>
<path opacity="0.2" d="M4.20609 352.186C4.6712 354.427 3.12419 357.064 1.60752 355.928C0.0908382 354.793 -0.859613 348.586 1.12218 349.579C2.33156 350.206 3.3854 351.097 4.20609 352.186Z" fill="#4A9151"/>
<path opacity="0.2" d="M24.2667 303.809C22.2444 304.895 19.3021 304.164 19.9492 302.379C20.5963 300.594 26.2687 297.917 25.8744 300.097C25.6221 301.44 25.0727 302.708 24.2667 303.809Z" fill="#307735"/>
<path opacity="0.2" d="M20.3334 315.311C20.7884 317.552 19.2515 320.189 17.7247 319.053C16.198 317.917 15.2677 311.71 17.2394 312.704C18.4498 313.333 19.5064 314.223 20.3334 315.311Z" fill="#234C24"/>
</g>
<g opacity="0.2">
<path opacity="0.2" d="M80.5455 159.528C77.3302 162.003 71.9207 161.556 72.5577 158.24C73.1947 154.923 82.3857 148.615 82.315 152.56C82.252 154.986 81.6473 157.367 80.5455 159.528Z" fill="#4A9151"/>
<path opacity="0.2" d="M61.9106 141.12C58.5031 138.909 57.1179 133.655 60.4444 133.148C63.771 132.641 72.77 139.234 69.0491 140.461C66.7492 141.216 64.3092 141.441 61.9106 141.12Z" fill="#234C24"/>
<path opacity="0.2" d="M71.5667 176.861C66.3494 173.463 64.2058 165.39 69.3221 164.62C74.4383 163.849 88.2603 173.93 82.5374 175.847C79.0022 177.004 75.2532 177.35 71.5667 176.861Z" fill="#4A9151"/>
<path opacity="0.2" d="M55.763 137.347C54.9946 143.554 48.6852 149.011 45.763 144.741C42.8409 140.471 45.8237 123.585 50.0502 127.905C52.6308 130.587 54.5825 133.813 55.763 137.347Z" fill="#4A9151"/>
<path opacity="0.2" d="M56.1775 165.238C52.4061 163.747 49.9996 158.868 53.1442 157.712C56.2888 156.556 66.4303 161.211 63.0228 163.179C60.9226 164.368 58.5838 165.072 56.1775 165.238Z" fill="#234C24"/>
<path opacity="0.2" d="M43.1139 171.12C40.3333 174.072 34.9238 174.498 35.025 171.12C35.1261 167.743 43.1948 160.055 43.7509 163.96C44.0712 166.365 43.8536 168.811 43.1139 171.12Z" fill="#307735"/>
<path opacity="0.2" d="M59.3019 152.997C55.3585 151.982 52.3252 147.53 55.2574 145.948C58.1897 144.366 68.8873 147.591 65.7832 150.005C63.8699 151.47 61.6563 152.492 59.3019 152.997Z" fill="#4A9151"/>
<path opacity="0.2" d="M34.57 144.427C33.7307 140.441 36.4608 135.745 39.1706 137.753C41.8804 139.761 43.579 150.806 40.0705 149.031C37.9169 147.928 36.0374 146.355 34.57 144.427Z" fill="#4A9151"/>
<path opacity="0.2" d="M70.2119 155.096C70.677 157.338 69.13 159.974 67.6133 158.839C66.0966 157.703 65.1563 151.486 67.128 152.49C68.3373 153.116 69.3912 154.007 70.2119 155.096Z" fill="#307735"/>
<path opacity="0.2" d="M82.7599 124.376C83.225 126.617 81.678 129.254 80.1613 128.118C78.6446 126.982 77.6942 120.776 79.676 121.769C80.8853 122.396 81.9392 123.287 82.7599 124.376Z" fill="#307735"/>
<path opacity="0.2" d="M94.418 168.737C94.8832 170.978 93.3361 173.615 91.8195 172.479C90.3028 171.344 89.3625 165.137 91.3341 166.141C92.5425 166.764 93.5962 167.651 94.418 168.737Z" fill="#234C24"/>
<path opacity="0.2" d="M49.0593 152.377C49.5244 154.619 47.9774 157.256 46.4607 156.12C44.944 154.984 44.0037 148.777 45.9754 149.771C47.1847 150.397 48.2386 151.288 49.0593 152.377Z" fill="#4A9151"/>
<path opacity="0.2" d="M26.7034 168.859C27.1686 171.1 25.6216 173.737 24.1049 172.601C22.5882 171.465 21.6377 165.258 23.6094 166.252C24.8225 166.878 25.8799 167.768 26.7034 168.859Z" fill="#4A9151"/>
<path opacity="0.2" d="M46.7135 120.481C44.6912 121.566 41.7388 120.836 42.396 119.051C43.0532 117.266 48.7155 114.589 48.3211 116.769C48.0666 118.111 47.5174 119.379 46.7135 120.481Z" fill="#307735"/>
<path opacity="0.2" d="M42.8207 131.982C43.2858 134.224 41.7388 136.861 40.2221 135.725C38.7054 134.589 37.7651 128.382 39.7368 129.376C40.9462 130.002 42 130.893 42.8207 131.982Z" fill="#234C24"/>
</g>
<g opacity="0.2">
<path opacity="0.2" d="M122.81 55.7854C118.766 55.7854 114.782 52.0531 117.32 49.8421C119.858 47.6312 130.97 48.3411 128.442 51.3939C126.914 53.2598 124.99 54.7601 122.81 55.7854Z" fill="#4A9151"/>
<path opacity="0.2" d="M119.463 29.7909C118.149 25.947 120.282 20.947 123.215 22.6103C126.147 24.2736 129.19 35.014 125.49 33.6854C123.217 32.8541 121.158 31.5234 119.463 29.7909Z" fill="#234C24"/>
<path opacity="0.2" d="M105.085 63.8989C103.063 57.9962 106.349 50.3187 110.849 52.8644C115.348 55.41 120.03 71.9111 114.337 69.8827C110.847 68.6041 107.687 66.5597 105.085 63.8989Z" fill="#4A9151"/>
<path opacity="0.2" d="M116.946 23.0161C112.537 27.4279 104.216 27.8234 104.529 22.651C104.843 17.4785 117.593 6.08902 118.301 12.0525C118.669 15.7627 118.206 19.5086 116.946 23.0161Z" fill="#4A9151"/>
<path opacity="0.2" d="M100.101 45.2277C98.0783 41.7185 99.1602 36.394 102.365 37.4386C105.571 38.4832 110.667 48.4123 106.774 47.8545C104.383 47.4865 102.103 46.5892 100.101 45.2277Z" fill="#234C24"/>
<path opacity="0.2" d="M86.228 41.769C82.1835 42.3775 77.7043 39.3653 79.858 36.769C82.0117 34.1726 93.1036 33.1178 91.1319 36.5357C89.9097 38.6273 88.2336 40.416 86.228 41.769Z" fill="#307735"/>
<path opacity="0.2" d="M110.111 37.5294C107.603 34.3347 107.977 28.9087 111.294 29.5071C114.61 30.1054 121.01 39.2434 117.087 39.213C114.666 39.1807 112.282 38.6055 110.111 37.5294Z" fill="#4A9151"/>
<path opacity="0.2" d="M95.9145 15.4702C97.7042 11.8191 102.75 9.8211 103.639 13.0767C104.529 16.3323 99.0894 26.0687 97.411 22.4987C96.3947 20.2975 95.8833 17.8958 95.9145 15.4702Z" fill="#4A9151"/>
<path opacity="0.2" d="M117.411 45.9268C116.4 47.9552 113.558 49.0912 113.063 47.2656C112.568 45.44 115.641 39.9532 116.582 41.9613C117.151 43.2041 117.434 44.5594 117.411 45.9268Z" fill="#307735"/>
<path opacity="0.2" d="M128.068 71.647C127.057 73.6755 124.216 74.8114 123.72 72.9858C123.225 71.1602 126.299 65.6734 127.239 67.6815C127.808 68.9244 128.091 70.2796 128.068 71.647Z" fill="#234C24"/>
<path opacity="0.2" d="M102.436 30.7037C101.425 32.7321 98.5838 33.868 98.0783 32.0424C97.5727 30.2169 100.667 24.73 101.607 26.7381C102.17 27.9831 102.453 29.3369 102.436 30.7037Z" fill="#4A9151"/>
<path opacity="0.2" d="M74.7012 29.8315C73.6901 31.8599 70.8489 33.0059 70.3534 31.1702C69.858 29.3345 72.9318 23.868 73.8721 25.8761C74.4348 27.1174 74.7179 28.4679 74.7012 29.8315Z" fill="#4A9151"/>
<path opacity="0.2" d="M120.202 4.14176C117.957 3.75636 116.076 1.34256 117.684 0.338493C119.292 -0.66557 125.399 0.744175 123.751 2.21477C122.726 3.11544 121.513 3.77396 120.202 4.14176Z" fill="#307735"/>
<path opacity="0.2" d="M110.07 10.7851C109.059 12.8135 106.218 13.9596 105.712 12.1238C105.207 10.2881 108.301 4.82157 109.241 6.82969C109.804 8.07104 110.087 9.42154 110.07 10.7851Z" fill="#234C24"/>
</g>
<path d="M1160 366H1145.24C1136.13 358.904 1121.98 348.602 1100.56 334.582C1080.05 321.189 1054.75 309.565 1030.11 299.197C997.663 285.621 966.291 274.324 948.378 264.506C926.877 252.685 925.155 228.519 926.285 214.25C926.545 210.469 927.099 206.713 927.941 203.018C928.3 207.746 928.936 212.449 929.847 217.103C932.37 230.43 938.1 249.831 950.73 260.304C961.389 269.127 989.606 277.204 1021.17 288.213C1050.09 298.267 1081.74 310.756 1105.39 328.52C1127.16 344.91 1145.88 357.281 1160 366Z" fill="#442D20"/>
<path d="M922.224 207.037C929.439 204.157 939.191 207.757 936.3 213.504C933.408 219.251 913.143 226.084 915.364 218.897C916.735 214.484 919.079 210.432 922.224 207.037Z" fill="#4A9151"/>
<path d="M947.129 250.368C952.268 256.18 952.124 266.535 945.723 265.749C939.323 264.964 926.088 248.273 933.619 247.907C938.25 247.711 942.867 248.552 947.129 250.368Z" fill="#234C24"/>
<path d="M947.734 179.873C955.619 188.801 955.409 204.746 945.565 203.437C935.722 202.128 915.416 176.666 926.969 176.037C934.091 175.756 941.186 177.067 947.734 179.873Z" fill="#4A9151"/>
<path d="M956.513 260.461C961.113 249.491 975.557 242.723 978.777 252.07C981.997 261.417 967.776 290.806 962.204 280.765C958.808 274.505 956.864 267.567 956.513 260.461Z" fill="#4A9151"/>
<path d="M970.155 209.118C976.345 213.805 978.264 223.977 971.824 224.461C965.384 224.945 949.114 211.213 956.408 209.367C960.914 208.259 965.612 208.174 970.155 209.118Z" fill="#234C24"/>
<path d="M997.255 205.073C1003.92 201.146 1014.12 203.096 1012.19 209.236C1010.25 215.376 991.42 225.312 992.419 217.928C993.042 213.336 994.695 208.942 997.255 205.073Z" fill="#307735"/>
<path d="M958.064 229.959C964.832 233.755 968.131 243.573 961.823 244.935C955.514 246.296 937.509 234.947 944.488 232.067C948.8 230.369 953.438 229.649 958.064 229.959Z" fill="#4A9151"/>
<path d="M999.305 258.419C998.793 266.142 991.328 273.342 987.372 268.263C983.416 263.184 985.953 242.081 991.538 247.134C994.941 250.27 997.596 254.126 999.305 258.419Z" fill="#4A9151"/>
<path d="M939.007 220.547C939.309 216.188 943.515 212.156 945.736 215.023C947.957 217.89 946.485 229.711 943.371 226.857C941.463 225.103 939.972 222.947 939.007 220.547Z" fill="#307735"/>
<path d="M900 270.292C900.302 265.946 904.508 261.901 906.729 264.768C908.95 267.635 907.491 279.508 904.363 276.655C902.452 274.883 900.962 272.71 900 270.292V270.292Z" fill="#307735"/>
<path d="M901.314 183.002C901.656 178.656 905.875 174.611 908.096 177.477C910.317 180.344 908.845 192.205 905.717 189.364C903.792 187.597 902.288 185.423 901.314 183.002Z" fill="#234C24"/>
<path d="M976.648 236.36C976.95 232.014 981.169 227.969 983.39 230.836C985.611 233.703 984.139 245.576 981.011 242.722C979.1 240.951 977.61 238.778 976.648 236.36Z" fill="#4A9151"/>
<path d="M1026.43 217.68C1026.73 213.333 1030.94 209.288 1033.16 212.155C1035.38 215.022 1033.92 226.896 1030.8 224.042C1028.88 222.27 1027.39 220.097 1026.43 217.68Z" fill="#4A9151"/>
<path d="M964.543 296.042C968.801 295.1 973.888 297.966 971.772 300.899C969.656 303.831 957.801 305.821 959.654 302.025C960.813 299.69 962.484 297.646 964.543 296.042Z" fill="#307735"/>
<path d="M977.646 276.969C977.949 272.622 982.168 268.59 984.389 271.444C986.61 274.298 985.138 286.185 982.01 283.383C980.093 281.597 978.602 279.405 977.646 276.969Z" fill="#234C24"/>
<path d="M1130.84 328.822C1124.15 332.749 1113.96 330.707 1115.93 324.58C1117.9 318.454 1136.82 308.609 1135.78 316.045C1135.11 320.618 1133.42 324.984 1130.84 328.822Z" fill="#4A9151"/>
<path d="M1099.53 289.81C1093.56 284.849 1092.09 274.599 1098.55 274.402C1105 274.206 1120.65 288.658 1113.26 290.111C1108.72 291.03 1104.03 290.928 1099.53 289.81Z" fill="#234C24"/>
<path d="M1109.82 359.559C1100.62 351.954 1098.41 336.205 1108.32 335.891C1118.23 335.577 1142.26 357.779 1130.93 360.122C1123.94 361.501 1116.73 361.308 1109.82 359.559Z" fill="#4A9151"/>
<path d="M1088.68 281.288C1085.82 292.835 1072.6 301.723 1067.98 292.992C1063.35 284.26 1072.88 253.012 1079.95 262.15C1084.25 267.801 1087.24 274.34 1088.68 281.288Z" fill="#4A9151"/>
<path d="M1083.16 334.11C1076.32 330.419 1072.85 320.666 1079.13 319.187C1085.42 317.707 1103.62 328.809 1096.69 331.754C1092.41 333.533 1087.79 334.338 1083.16 334.11Z" fill="#234C24"/>
<path d="M1056.96 342.292C1050.98 347.241 1040.6 346.822 1041.57 340.46C1042.54 334.097 1059.63 321.386 1059.8 328.9C1059.87 333.519 1058.9 338.095 1056.96 342.292Z" fill="#307735"/>
<path d="M1091.88 311.659C1084.6 308.937 1079.83 299.747 1085.85 297.43C1091.87 295.113 1111.44 303.622 1104.97 307.483C1100.97 309.828 1096.5 311.254 1091.88 311.659Z" fill="#4A9151"/>
<path d="M1046.74 289.929C1046.05 282.205 1052.31 273.958 1057.01 278.369C1061.72 282.781 1062.44 304.028 1056.16 299.878C1052.32 297.301 1049.1 293.902 1046.74 289.929Z" fill="#4A9151"/>
<path d="M1112.17 318.087C1112.56 322.433 1109.01 327.067 1106.38 324.632C1103.75 322.197 1103.36 310.232 1106.89 312.523C1109.04 313.968 1110.85 315.868 1112.17 318.087Z" fill="#307735"/>
<path d="M1143.02 262.87C1143.39 267.203 1139.85 271.85 1137.22 269.415C1134.6 266.98 1134.2 255.015 1137.72 257.306C1139.88 258.744 1141.69 260.645 1143.02 262.87Z" fill="#307735"/>
<path d="M1155.16 349.375C1155.54 353.708 1152.01 358.342 1149.37 355.92C1146.73 353.498 1146.34 341.52 1149.88 343.811C1152.04 345.25 1153.84 347.151 1155.16 349.375Z" fill="#234C24"/>
<path d="M1072.52 308.177C1072.9 312.523 1069.37 317.158 1066.73 314.723C1064.09 312.288 1063.7 300.323 1067.24 302.614C1069.4 304.05 1071.2 305.952 1072.52 308.177Z" fill="#4A9151"/>
<path d="M1026.17 334.268C1026.55 338.614 1023.01 343.248 1020.37 340.813C1017.73 338.378 1017.35 326.413 1020.89 328.704C1023.04 330.141 1024.85 332.042 1026.17 334.268Z" fill="#4A9151"/>
<path d="M1075.28 247.344C1071.21 248.941 1065.74 246.886 1067.4 243.665C1069.05 240.445 1080.43 236.661 1079.23 240.693C1078.43 243.178 1077.08 245.452 1075.28 247.344Z" fill="#307735"/>
<path d="M1065.27 268.211C1065.64 272.544 1062.1 277.178 1059.47 274.756C1056.84 272.334 1056.45 260.356 1059.98 262.647C1062.14 264.091 1063.94 265.991 1065.27 268.211Z" fill="#234C24"/>
<g opacity="0.2">
<path opacity="0.2" d="M1043.11 287.402C1038.31 289.588 1031.6 287.402 1033.37 283.475C1035.15 279.547 1048.6 274.206 1047.37 279.142C1046.59 282.178 1045.13 285 1043.11 287.402Z" fill="#4A9151"/>
<path opacity="0.2" d="M1024.85 258.851C1021.19 255.08 1020.91 248.064 1025.3 248.378C1029.69 248.692 1039.17 259.584 1034.08 260.081C1030.95 260.359 1027.8 259.939 1024.85 258.851Z" fill="#234C24"/>
<path opacity="0.2" d="M1026.71 306.607C1021.08 300.82 1020.71 290.047 1027.42 290.544C1034.12 291.041 1048.71 307.745 1040.89 308.505C1036.08 308.933 1031.23 308.285 1026.71 306.607Z" fill="#4A9151"/>
<path opacity="0.2" d="M1018.14 252.318C1015.38 259.898 1005.81 264.951 1003.33 258.72C1000.84 252.488 1009.54 232.132 1013.64 238.795C1016.13 242.914 1017.67 247.534 1018.14 252.318Z" fill="#4A9151"/>
<path opacity="0.2" d="M1010.58 287.533C1006.23 284.561 1004.6 277.728 1008.95 277.191C1013.3 276.654 1024.72 285.438 1019.87 286.918C1016.86 287.812 1013.69 288.022 1010.58 287.533Z" fill="#234C24"/>
<path opacity="0.2" d="M992.327 291.146C987.937 294.052 980.972 293.018 982.089 288.803C983.206 284.588 995.652 277.244 995.231 282.258C994.944 285.4 993.951 288.437 992.327 291.146Z" fill="#307735"/>
<path opacity="0.2" d="M1018.09 273.028C1013.38 270.672 1010.83 264.126 1015.06 263C1019.3 261.875 1031.86 269.022 1027.22 271.156C1024.35 272.453 1021.23 273.093 1018.09 273.028Z" fill="#4A9151"/>
<path opacity="0.2" d="M989.238 255.08C989.343 249.844 994.167 244.712 997.006 248.024C999.844 251.336 998.806 265.71 994.876 262.424C992.473 260.423 990.547 257.915 989.238 255.08Z" fill="#4A9151"/>
<path opacity="0.2" d="M1031.31 278.827C1031.31 281.786 1028.52 284.653 1026.93 282.754C1025.34 280.856 1025.95 272.805 1028.15 274.638C1029.51 275.781 1030.59 277.213 1031.31 278.827Z" fill="#307735"/>
<path opacity="0.2" d="M1056.11 243.822C1056.11 246.781 1053.32 249.648 1051.73 247.75C1050.14 245.851 1050.75 237.8 1052.95 239.633C1054.31 240.776 1055.39 242.208 1056.11 243.822Z" fill="#307735"/>
<path opacity="0.2" d="M1058.01 303.02C1058.01 305.978 1055.23 308.845 1053.64 306.947C1052.05 305.049 1052.65 296.998 1054.86 298.83C1056.21 299.975 1057.29 301.406 1058.01 303.02Z" fill="#234C24"/>
<path opacity="0.2" d="M1005.3 269.284C1005.23 272.243 1002.51 275.11 1000.92 273.211C999.332 271.313 999.923 263.262 1002.14 265.095C1003.5 266.24 1004.57 267.671 1005.3 269.284Z" fill="#4A9151"/>
<path opacity="0.2" d="M972.192 283.54C972.192 286.499 969.406 289.365 967.816 287.467C966.226 285.569 966.817 277.518 969.038 279.351C970.392 280.494 971.47 281.926 972.192 283.54Z" fill="#4A9151"/>
<path opacity="0.2" d="M1011.57 228.48C1008.72 229.265 1005.17 227.485 1006.51 225.429C1007.85 223.374 1015.81 221.646 1014.68 224.277C1013.97 225.893 1012.91 227.329 1011.57 228.48Z" fill="#307735"/>
<path opacity="0.2" d="M1003.31 241.819C1003.31 244.778 1000.53 247.645 998.924 245.746C997.321 243.848 997.939 235.797 1000.15 237.617C1001.5 238.767 1002.58 240.202 1003.31 241.819Z" fill="#234C24"/>
</g>
<path d="M94.0683 366H104.812C105.674 365.032 106.82 363.79 108.294 362.242C110.064 360.374 112.322 358.062 115.101 355.306C120.932 349.611 129.123 341.924 140.343 332.198C169.124 307.268 204.406 295.162 222.342 281.871C240.028 268.785 251.021 224.255 251.361 222.866C250.908 224.084 236.25 263.341 222.886 277.372C209.273 291.631 172.312 294.706 140.683 325.49C127.349 338.674 113.278 351.085 98.538 362.663C96.7569 364.041 95.2594 365.157 94.0683 366Z" fill="#442D20"/>
<path d="M89.7233 366H101.068C102.985 364.952 105.379 363.722 108.328 362.241C112.605 360.135 118.062 357.606 124.926 354.657C148.613 344.486 180.333 342.732 195.478 337.71C210.623 332.688 214.491 307.917 214.491 307.917C214.491 307.917 206.142 328.975 195.33 335.25C184.519 341.525 149.816 337.756 124.234 350.875C121.042 352.508 118.017 354.007 115.158 355.374C108.771 358.415 103.189 360.829 98.5608 362.708C95.044 364.075 92.0944 365.18 89.7233 366Z" fill="#442D20"/>
<path d="M188.614 249.253C191.269 254.242 198.348 256.793 199.448 252.226C200.549 247.659 192.528 234.391 190.373 239.425C189.064 242.528 188.463 245.887 188.614 249.253Z" fill="#4A9151"/>
<path d="M222.694 236.715C228.264 235.872 233.028 230.018 229.115 227.467C225.201 224.916 210.056 228.036 214.049 231.76C216.527 234.037 219.481 235.73 222.694 236.715Z" fill="#234C24"/>
<path d="M190.044 276.359C198.586 275.061 205.926 266.109 199.891 262.157C193.856 258.205 170.633 263.023 176.771 268.751C180.576 272.247 185.111 274.846 190.044 276.359Z" fill="#4A9151"/>
<path d="M232.631 235.485C230.045 243.765 234.9 254.299 241.038 250.586C247.175 246.874 253.052 223.789 245.247 226.818C240.451 228.728 236.141 231.689 232.631 235.485Z" fill="#4A9151"/>
<path d="M216.148 270.517C221.82 270.801 227.594 266.018 224.259 262.727C220.924 259.435 205.472 259.504 208.649 263.957C210.634 266.673 213.196 268.914 216.148 270.517Z" fill="#234C24"/>
<path d="M229.296 285.482C231.123 290.823 237.714 294.468 239.506 290.14C241.299 285.812 235.513 271.474 232.575 276.029C230.792 278.894 229.671 282.124 229.296 285.482Z" fill="#307735"/>
<path d="M219.154 253.251C224.69 254.299 231.111 250.359 228.23 246.646C225.348 242.933 210.078 240.872 212.597 245.712C214.195 248.684 216.436 251.26 219.154 253.251Z" fill="#4A9151"/>
<path d="M255.366 256.668C258.701 252.112 257.93 244.596 253.358 245.587C248.786 246.577 240.323 259.538 245.78 259.333C249.133 259.171 252.408 258.261 255.366 256.668Z" fill="#4A9151"/>
<path d="M204.213 249.595C202.341 252.169 202.784 256.429 205.348 255.825C207.912 255.221 212.654 247.955 209.591 248.081C207.708 248.176 205.87 248.693 204.213 249.595Z" fill="#307735"/>
<path d="M205.926 203.516C204.054 206.09 204.497 210.35 207.061 209.746C209.625 209.142 214.378 201.876 211.315 202.002C209.428 202.095 207.587 202.612 205.926 203.516Z" fill="#307735"/>
<path d="M165.834 252.921C163.962 255.483 164.416 259.754 166.969 259.151C169.521 258.547 174.286 251.27 171.212 251.406C169.329 251.501 167.491 252.019 165.834 252.921Z" fill="#234C24"/>
<path d="M232.495 258.342C230.635 260.916 231.077 265.175 233.63 264.583C236.182 263.991 240.958 256.668 237.884 256.827C235.998 256.927 234.158 257.444 232.495 258.342Z" fill="#4A9151"/>
<path d="M251.339 292.064C249.467 294.638 249.909 298.898 252.473 298.305C255.037 297.713 259.779 290.424 256.716 290.561C254.834 290.653 252.997 291.167 251.339 292.064Z" fill="#4A9151"/>
<path d="M253.71 219.347C255.627 221.875 259.79 222.661 259.995 220.03C260.199 217.399 254.549 210.748 253.8 213.732C253.354 215.574 253.323 217.492 253.71 219.347Z" fill="#307735"/>
<path d="M252.053 236.168C250.182 238.742 250.624 243.001 253.188 242.409C255.752 241.817 260.494 234.528 257.431 234.653C255.549 234.755 253.713 235.272 252.053 236.168Z" fill="#234C24"/>
<g opacity="0.2">
<path opacity="0.2" d="M162.431 340.773C166.56 342.675 172.357 340.83 170.837 337.357C169.317 333.883 157.689 329.293 158.744 333.598C159.423 336.237 160.683 338.689 162.431 340.773Z" fill="#4A9151"/>
<path opacity="0.2" d="M178.257 315.888C181.422 312.608 181.66 306.504 177.86 306.777C174.059 307.051 165.834 316.583 170.281 317.027C172.991 317.246 175.715 316.857 178.257 315.888Z" fill="#234C24"/>
<path opacity="0.2" d="M176.634 357.492C181.501 352.447 181.819 343.085 176.033 343.518C170.247 343.951 157.655 358.471 164.394 359.166C168.547 359.532 172.73 358.959 176.634 357.492Z" fill="#4A9151"/>
<path opacity="0.2" d="M183.986 310.263C186.379 316.846 194.627 321.242 196.771 315.821C198.915 310.4 191.405 292.69 187.865 298.487C185.716 302.074 184.39 306.097 183.986 310.263Z" fill="#4A9151"/>
<path opacity="0.2" d="M190.566 340.944C194.309 338.359 195.716 332.414 191.972 331.947C188.229 331.48 178.359 339.122 182.534 340.409C185.137 341.188 187.882 341.371 190.566 340.944Z" fill="#234C24"/>
<path opacity="0.2" d="M206.312 344.031C210.101 346.559 216.114 345.659 215.161 341.992C214.208 338.325 203.453 331.947 203.816 336.298C204.061 339.031 204.914 341.673 206.312 344.031Z" fill="#307735"/>
<path opacity="0.2" d="M184.076 328.269C188.138 326.219 190.339 320.524 186.697 319.545C183.055 318.565 172.199 324.784 176.203 326.651C178.674 327.774 181.365 328.327 184.076 328.269Z" fill="#4A9151"/>
<path opacity="0.2" d="M208.944 312.655C208.864 308.099 204.701 303.635 202.239 306.516C199.777 309.398 200.685 321.914 204.088 319.044C206.16 317.304 207.819 315.121 208.944 312.655Z" fill="#4A9151"/>
<path opacity="0.2" d="M172.641 333.314C172.641 335.888 175.035 338.382 176.419 336.731C177.803 335.079 177.27 328.064 175.364 329.658C174.195 330.657 173.265 331.907 172.641 333.314Z" fill="#307735"/>
<path opacity="0.2" d="M151.256 302.86C151.256 305.434 153.661 307.928 155.045 306.276C156.43 304.625 155.896 297.621 153.99 299.215C152.822 300.213 151.889 301.457 151.256 302.86Z" fill="#307735"/>
<path opacity="0.2" d="M149.611 354.348C149.611 356.922 152.017 359.416 153.401 357.765C154.785 356.114 154.251 349.098 152.346 350.693C151.172 351.689 150.237 352.939 149.611 354.348Z" fill="#234C24"/>
<path opacity="0.2" d="M195.126 325C195.126 327.574 197.52 330.068 198.904 328.417C200.288 326.765 199.755 319.75 197.849 321.344C196.68 322.343 195.75 323.593 195.126 325Z" fill="#4A9151"/>
<path opacity="0.2" d="M223.692 337.414C223.692 339.988 226.086 342.482 227.47 340.831C228.854 339.18 228.32 332.176 226.415 333.77C225.248 334.766 224.317 336.011 223.692 337.414Z" fill="#4A9151"/>
<path opacity="0.2" d="M189.658 289.513C192.131 290.196 195.183 288.647 194.026 286.859C192.869 285.071 186.005 283.568 186.981 285.857C187.592 287.26 188.506 288.509 189.658 289.513Z" fill="#307735"/>
<path opacity="0.2" d="M196.839 301.083C196.896 303.657 199.244 306.151 200.617 304.5C201.99 302.849 201.468 295.845 199.562 297.439C198.395 298.435 197.465 299.68 196.839 301.083Z" fill="#234C24"/>
</g>
<g opacity="0.2">
<path opacity="0.2" d="M75.6673 339.807C79.2749 342.585 85.3443 342.084 84.6182 338.36C83.8922 334.636 73.6026 327.552 73.682 331.982C73.7527 334.707 74.4311 337.38 75.6673 339.807Z" fill="#4A9151"/>
<path opacity="0.2" d="M96.5754 319.136C100.387 316.653 101.953 310.754 98.2204 310.184C94.488 309.615 84.3799 317.018 88.5661 318.396C91.1479 319.237 93.884 319.49 96.5754 319.136Z" fill="#234C24"/>
<path opacity="0.2" d="M85.73 359.27C91.5951 355.455 94.0002 346.389 88.2598 345.512C82.5194 344.635 67.0113 355.967 73.4324 358.131C77.3963 359.424 81.5974 359.813 85.73 359.27Z" fill="#4A9151"/>
<path opacity="0.2" d="M103.439 314.9C104.301 321.858 111.38 327.997 114.659 323.202C117.937 318.407 114.591 299.445 109.849 304.297C106.948 307.305 104.758 310.928 103.439 314.9Z" fill="#4A9151"/>
<path opacity="0.2" d="M103.008 346.219C107.239 344.544 109.928 339.066 106.411 337.768C102.894 336.47 91.5044 341.686 95.3275 343.895C97.684 345.233 100.308 346.026 103.008 346.219Z" fill="#234C24"/>
<path opacity="0.2" d="M117.665 352.824C120.785 356.138 126.854 356.617 126.741 352.824C126.627 349.032 117.574 340.399 116.95 344.784C116.587 347.484 116.831 350.231 117.665 352.824Z" fill="#307735"/>
<path opacity="0.2" d="M99.5024 332.461C103.915 331.322 107.33 326.323 104.04 324.557C100.75 322.792 88.7363 326.402 92.2305 329.113C94.3762 330.758 96.8605 331.902 99.5024 332.461Z" fill="#4A9151"/>
<path opacity="0.2" d="M127.263 322.838C128.204 318.373 125.13 313.1 122.101 315.355C119.072 317.61 117.155 330.001 121.091 328.02C123.51 326.78 125.62 325.009 127.263 322.838Z" fill="#4A9151"/>
<path opacity="0.2" d="M87.2615 334.818C86.7397 337.335 88.4754 340.296 90.1771 339.021C91.8788 337.745 92.9338 330.775 90.7216 331.903C89.3659 332.603 88.1836 333.599 87.2615 334.818Z" fill="#307735"/>
<path opacity="0.2" d="M73.1828 300.333C72.6609 302.85 74.3966 305.811 76.0983 304.536C77.8 303.26 78.8551 296.29 76.6429 297.406C75.286 298.11 74.1036 299.11 73.1828 300.333Z" fill="#307735"/>
<path opacity="0.2" d="M60.0911 350.147C59.5806 352.664 61.305 355.625 63.018 354.35C64.7311 353.074 65.7748 346.104 63.5626 347.22C62.2046 347.927 61.0191 348.926 60.0911 350.147Z" fill="#234C24"/>
<path opacity="0.2" d="M110.983 331.835C110.473 334.351 112.197 337.313 113.91 336.037C115.623 334.761 116.667 327.792 114.455 328.908C113.096 329.614 111.911 330.614 110.983 331.835Z" fill="#4A9151"/>
<path opacity="0.2" d="M136.077 350.284C135.556 352.801 137.291 355.762 138.993 354.486C140.695 353.211 141.761 346.23 139.538 347.357C138.181 348.061 136.998 349.061 136.077 350.284Z" fill="#4A9151"/>
<path opacity="0.2" d="M113.649 295.96C115.918 297.179 119.219 296.347 118.493 294.343C117.767 292.338 111.403 289.343 111.845 291.792C112.131 293.298 112.747 294.722 113.649 295.96Z" fill="#307735"/>
<path opacity="0.2" d="M117.994 308.875C117.472 311.392 119.208 314.353 120.91 313.078C122.611 311.802 123.666 304.821 121.454 305.948C120.097 306.652 118.915 307.652 117.994 308.875Z" fill="#234C24"/>
</g>
</svg>
